<svg width="90" height="90" viewBox="0 0 90 90" fill="none" xmlns="http://www.w3.org/2000/svg">
<rect width="90" height="90" rx="10" fill="#1E1E1E"/>
<path d="M18.9944 62C17.8244 62 16.7444 61.715 15.7544 61.145C14.7644 60.545 13.9844 59.765 13.4144 58.805C12.8444 57.815 12.5594 56.72 12.5594 55.52V52.775H19.0394V55.205C19.0394 55.295 19.0544 55.37 19.0844 55.43C19.1444 55.46 19.2044 55.475 19.2644 55.475H38.1194C38.1794 55.475 38.2394 55.46 38.2994 55.43C38.3594 55.37 38.3894 55.295 38.3894 55.205V49.31C38.3894 49.25 38.3594 49.205 38.2994 49.175C38.2394 49.115 38.1794 49.085 38.1194 49.085H18.9944C17.8244 49.085 16.7444 48.8 15.7544 48.23C14.7644 47.63 13.9844 46.835 13.4144 45.845C12.8444 44.855 12.5594 43.775 12.5594 42.605V36.08C12.5594 34.88 12.8444 33.8 13.4144 32.84C13.9844 31.85 14.7644 31.07 15.7544 30.5C16.7444 29.9 17.8244 29.6 18.9944 29.6H38.4794C39.6494 29.6 40.7144 29.9 41.6744 30.5C42.6644 31.07 43.4594 31.85 44.0594 32.84C44.6594 33.8 44.9594 34.88 44.9594 36.08V38.825H38.3894V36.395C38.3894 36.305 38.3594 36.245 38.2994 36.215C38.2394 36.155 38.1794 36.125 38.1194 36.125H19.2644C19.2044 36.125 19.1444 36.155 19.0844 36.215C19.0544 36.245 19.0394 36.305 19.0394 36.395V42.29C19.0394 42.35 19.0544 42.41 19.0844 42.47C19.1444 42.5 19.2044 42.515 19.2644 42.515H38.4794C39.6494 42.515 40.7144 42.815 41.6744 43.415C42.6644 43.985 43.4594 44.765 44.0594 45.755C44.6594 46.745 44.9594 47.825 44.9594 48.995V55.52C44.9594 56.72 44.6594 57.815 44.0594 58.805C43.4594 59.765 42.6644 60.545 41.6744 61.145C40.7144 61.715 39.6494 62 38.4794 62H18.9944ZM49.9611 62V29.6H79.8411V36.125H56.5311V42.515H75.2961V49.085H56.5311V62H49.9611Z" fill="white"/>
</svg>
