<?xml version="1.0" encoding="UTF-8"?>
<svg id="Layer_2" data-name="Layer 2" xmlns="http://www.w3.org/2000/svg" viewBox="0 0 425.56 123.44">
  <defs>
    <style>
      .cls-1 {
        fill: #fff;
      }
    </style>
  </defs>
  <g id="Layer_1-2" data-name="Layer 1">
    <g>
      <path class="cls-1" d="M245.75,122.07c-4.48,2.74-8.64,1.05-11.89-2.22l-32.91-33.15v36.24s-13.76-.07-13.76-.07l.02-51.72c.33-2.51,1.53-4.22,3.96-5.01,2.13-.5,5.29-.72,7.15,1.14l36.24,36.42.03-37.56,13.64-.02.02,50.78c-.19,2.08-.98,3.97-2.5,5.17Z"/>
      <path class="cls-1" d="M230.59.15l11.86-.02v41.45c-.24,6.35-5.03,9.93-11.3,9.92l-39.9-.08c-6.11-.01-9.78-4.7-9.77-10.43l.08-40.81,10.64-.15c.44,0,.99.46,1.09.94l-.02,39.53,13.13.02.02-40.32,11.81.03.03,40.26,12.37.02-.03-40.34Z"/>
      <path class="cls-1" d="M269.46,99.39l-.08,12.1h41.01s.07,11.41.07,11.41l-42.68-.04c-6.5,0-11.38-5.21-11.4-11.56l-.07-31.91c-.02-7.84,4.28-12.66,12.17-13.26h41.92s.08,11.44.08,11.44h-41.07s-.03,11.01-.03,11.01l39.58.03-.05,10.8h-39.46Z"/>
      <path class="cls-1" d="M358.76,122.89h-42.39s.02-11.4.02-11.4h41.27s.05-12.08.05-12.08l-32.26-.05c-5.6,0-9.87-4.53-9.91-10l-.08-12.12c-.04-6.16,4.7-11.02,11.09-11.02l40.39.02-.04,11.17-39.41-.07v11.1s31.17,0,31.17,0c5.43.06,9.72,4.23,9.73,9.69l.03,14.52c.01,5.48-4.05,9.6-9.65,10.24Z"/>
      <path class="cls-1" d="M415.01,122.84l-41.2.03-.05-11.49h41.06s.02-12.01.02-12.01h-31.71c-5.42-.16-9.87-4.25-9.92-9.74l-.13-12.68c-.05-4.68,2.72-8.69,7.23-10.09,1.85-.58,3.82-.78,5.86-.77l37.64.05.03,11.22-38.81.02v10.95s30.71.04,30.71.04c5.47,0,9.84,4.44,9.81,9.81l-.08,14.88c-.03,5.47-4.79,9.77-10.47,9.78Z"/>
      <path class="cls-1" d="M411.98,51.36l-42.95.17.02-10.73h40.86s.06-10.49.06-10.49l-33.55-.1c-4.38-.01-7.87-3.58-7.88-7.81l-.02-13.89c0-5.26,4.83-8.48,10.43-8.47l40.59.02v10.64s-39.85.01-39.85.01l.02,9.51,33.86.08c4.52.01,7.83,3.77,7.83,8.03v13.64c0,4.99-3.94,9.38-9.41,9.4Z"/>
      <path class="cls-1" d="M40.53,51.48H.77s0-10.68,0-10.68h41s.02-10.5.02-10.5H8.18C3.48,29.9.26,26.7.11,21.93c-.13-4.29-.16-8.59-.01-12.92C.29,3.22,5.3.05,11.03.06h39.94s-.01,10.66-.01,10.66H11.35s.05,9.52.05,9.52l33.89.02c4.36.3,7.84,3.39,7.86,7.85l.05,14.13c.01,4.13-2.79,7.54-6.73,8.62-1.92.53-3.85.64-5.95.64Z"/>
      <path class="cls-1" d="M162.63,30.53l-31.82-.06-.03,21.1-11.8-.03.08-41.02C119.44,3.08,124.53-.02,131.82,0l31.87.09c5.96.02,10.33,4.6,10.63,10.45v41.03s-11.69.03-11.69.03v-21.08ZM162.62,20.72l.02-10-31.85-.03v10.03s31.83,0,31.83,0Z"/>
      <path class="cls-1" d="M53.93,89.12l.04,10.95-39.78-.02.03,22.84H.5s0-46.43,0-46.43c.9-6.1,5.84-9.95,11.98-10.21h43.77s.01,11.3.01,11.3H14.22s-.01,11.56-.01,11.56h39.73Z"/>
      <path class="cls-1" d="M299.54,51.51c-2.15.44-4.77.36-6.37-1.26l-31.25-31.68-.04,32.99-11.57.03.03-47.26c0-2.41,2.03-4.08,4.13-4.28,1.91-.18,3.76.26,5.17,1.69l31.88,32.2.11-33.82,10.94-.06c.51.18.95.59.95,1.16l-.06,45.48c0,2.42-1.61,4.34-3.93,4.81Z"/>
      <polygon class="cls-1" points="110.53 122.83 64.09 122.84 64.09 111.61 80.5 111.61 80.52 77.57 63.72 77.55 63.71 66.28 110.62 66.31 110.63 77.55 94.04 77.6 94.07 111.64 110.51 111.64 110.53 122.83"/>
      <path class="cls-1" d="M112.56,51.57h-11.85s0-21.03,0-21.03h-30.16s-.04,21.06-.04,21.06h-11.69s0-51.39,0-51.39c3.9-.15,7.65-.13,11.69-.05l.02,20.58h30.18s.01-20.5.01-20.5c3.92-.2,7.51-.19,11.78-.09l.05,51.42Z"/>
      <polygon class="cls-1" points="154.94 122.95 141.29 122.9 141.29 77.6 117.33 77.56 117.37 66.27 179.12 66.28 179.13 77.57 154.93 77.58 154.94 122.95"/>
      <path class="cls-1" d="M355.44,21.01c-.02,5.11-4.62,9.19-9.57,9.24l-9.04.1-.03,21.25-11.44-.04-.05-21.2-7.11-.17c-5.51-.69-8.69-5.12-8.67-10.35l.1-19.64h11.45s0,20.51,0,20.51l23.08-.02V4.18c.29-2.09,1.93-3.18,3.9-3.76,2.44-.33,4.88-.3,7.46-.06l-.08,20.65Z"/>
      <path class="cls-1" d="M365.82,12.18l-7.7.02-.02-5.97c0-1.49.73-3.42,1.91-4.31,1.7-1.28,3.81-1.41,5.82-1.39v11.64Z"/>
    </g>
  </g>
</svg>